HIERARCHY
ROOT Hips
{
  OFFSET -331.093 83.8371 -317.828
  CHANNELS 6 Xposition Yposition Zposition Zrotation Xrotation Yrotation
  JOINT LeftUpLeg
  {
    OFFSET 8.64259 1.95398 -2.38835
    CHANNELS 3 Zrotation Xrotation Yrotation
    JOINT LeftLeg
    {
      OFFSET 43.7702 0 0
      CHANNELS 3 Zrotation Xrotation Yrotation
      JOINT LeftFoot
      {
        OFFSET 40.6238 0 0
        CHANNELS 3 Zrotation Xrotation Yrotation
        JOINT LeftToeBase
        {
          OFFSET 12.7242 0 0
          CHANNELS 3 Zrotation Xrotation Yrotation
          End Site
          {
            OFFSET 0 0 0
          }
        }
      }
    }
  }
  JOINT RightUpLeg
  {
    OFFSET -8.2249 1.95398 -2.59336
    CHANNELS 3 Zrotation Xrotation Yrotation
    JOINT RightLeg
    {
      OFFSET 43.5653 0 0
      CHANNELS 3 Zrotation Xrotation Yrotation
      JOINT RightFoot
      {
        OFFSET 40.6238 0 0
        CHANNELS 3 Zrotation Xrotation Yrotation
        JOINT RightToeBase
        {
          OFFSET 12.7242 0 0
          CHANNELS 3 Zrotation Xrotation Yrotation
          End Site
          {
            OFFSET 0 0 0
          }
        }
      }
    }
  }
  JOINT Spine
  {
    OFFSET 0.165834 0.87714 6.61349
    CHANNELS 3 Zrotation Xrotation Yrotation
    JOINT Spine1
    {
      OFFSET 7.38963 1.71661e-005 0
      CHANNELS 3 Zrotation Xrotation Yrotation
      JOINT Spine2
      {
        OFFSET 11.9445 1.14441e-005 0
        CHANNELS 3 Zrotation Xrotation Yrotation
        JOINT Spine3
        {
          OFFSET 14.7254 4.19617e-005 0
          CHANNELS 3 Zrotation Xrotation Yrotation
          JOINT Spine4
          {
            OFFSET 10.9679 0 0
            CHANNELS 3 Zrotation Xrotation Yrotation
            JOINT RightShoulder
            {
              OFFSET 2.46616 -1.6653 3.69651
              CHANNELS 3 Zrotation Xrotation Yrotation
              JOINT RightArm
              {
                OFFSET 13.0012 0 0
                CHANNELS 3 Zrotation Xrotation Yrotation
                JOINT RightForeArm
                {
                  OFFSET 28.7848 1.62311e-005 0
                  CHANNELS 3 Zrotation Xrotation Yrotation
                  JOINT RightHand
                  {
                    OFFSET 26.5688 1.62095e-005 0
                    CHANNELS 3 Zrotation Xrotation Yrotation
                    End Site
                    {
                      OFFSET 0 0 0
                    }
                  }
                }
              }
            }
            JOINT LeftShoulder
            {
              OFFSET 2.38034 -1.29275 -3.7523
              CHANNELS 3 Zrotation Xrotation Yrotation
              JOINT LeftArm
              {
                OFFSET 16.3182 6.07031e-005 0
                CHANNELS 3 Zrotation Xrotation Yrotation
                JOINT LeftForeArm
                {
                  OFFSET 27.0901 0 0
                  CHANNELS 3 Zrotation Xrotation Yrotation
                  JOINT LeftHand
                  {
                    OFFSET 24.5451 1.51738e-005 0
                    CHANNELS 3 Zrotation Xrotation Yrotation
                    End Site
                    {
                      OFFSET 0 0 0
                    }
                  }
                }
              }
            }
            JOINT Neck
            {
              OFFSET 5.0226 -0.0266342 0
              CHANNELS 3 Zrotation Xrotation Yrotation
              JOINT Head
              {
                OFFSET 6.69364 2.86102e-005 0
                CHANNELS 3 Zrotation Xrotation Yrotation
                End Site
                {
                  OFFSET 0 0 0
                }
              }
            }
          }
        }
      }
    }
  }
}
MOTION
Frames:	18
Frame Time:	0.0416667
28.1588 97.9807 -354.785 20.4521 -41.4626 29.6115 173.609 50.2195 92.9885 -13.6829 15.3123 1.06898 64.9652 0.916183 -4.12442 29.9883 1.49478 2.52545 174.574 59.1616 91.7224 -162.386 88.3224 136.24 30.2348 9.68543 12.6088 -20.0418 -30.7895 83.991 -4.69892 0.117819 -93.0758 26.6286 -10.7906 -3.099 15.0004 -10.9163 -2.61588 -7.79443 -9.35806 -6.22077 12.2182 -9.35806 -6.22076 84.759 -32.2107 -115.383 49.1945 -0.33002 -27.8331 -17.1403 -23.5427 -0.00580671 -31.9277 14.0147 -56.9755 -67.0499 -41.5084 115.33 -49.5816 4.14129 24.7379 16.6825 28.9635 -45.0046 26.2916 2.99562 7.66727 -11.4311 19.4051 23.6975 -13.7867 19.2036 -6.31266 
28.0617 98.2939 -354.488 14.6068 -51.0955 26.6836 177.107 45.6941 96.847 -19.9263 13.1749 0.241047 68.9557 1.99991 -3.27075 27.3673 -0.930041 0.591133 170.534 49.325 99.0405 -41.0223 77.5286 19.5946 33.9576 8.82746 11.6553 -13.3884 -23.6824 81.8825 -3.85604 1.11724 -93.1208 24.572 -9.22753 -3.92744 12.9294 -9.39128 -3.51473 -9.75321 -7.62106 -6.52747 10.2594 -7.62106 -6.52747 85.354 -32.1441 -114.317 48.1063 -1.39199 -27.3652 -15.3977 -26.4981 -0.00594824 -31.4115 13.5184 -56.4061 -69.2301 -43.3301 111.43 -46.8974 5.34205 24.4187 19.1208 30.1295 -47.3604 13.2056 1.38873 6.48977 -6.38981 17.9822 20.4031 -20.209 16.8874 -3.31904 
28.5417 98.229 -355.296 24.7763 -53.8665 32.7833 177.577 40.6915 91.943 -19.1305 13.9186 0.605962 67.7589 1.63564 -3.72677 28.0985 -0.836032 -1.62491 170.51 45.9595 94.45 -35.0963 59.6763 8.49124 37.9163 11.4437 13.5117 9.68562 -6.52164 72.1761 -4.04717 1.53388 -92.4745 23.7927 -9.21488 -2.61822 12.1528 -9.32105 -2.20689 -10.5719 -8.00063 -5.28045 9.44076 -8.00063 -5.28045 85.5686 -32.4063 -113.795 47.0562 -0.0676803 -25.149 -15.6509 -27.5667 -0.00600512 -29.3469 12.4573 -56.5633 -72.3378 -46.1581 106.11 -43.0404 4.1302 23.6023 18.8003 27.8488 -47.1804 12.6215 1.51972 7.85417 -10.4679 15.5254 22.5575 -13.3004 15.148 -6.55691 
28.5875 98.7594 -355.467 21.0455 -63.7216 30.1788 -179.335 33.985 94.407 -21.9203 9.59374 0.0804689 69.834 0.890449 -5.51445 27.4982 -1.42579 -2.44825 170.996 33.405 97.3583 -24.9918 34.0795 5.33047 45.9066 8.89996 8.73408 31.7647 6.84352 44.5692 -3.18642 2.56654 -92.3405 21.6704 -7.48377 -3.00478 10.0183 -7.60868 -2.67098 -12.6173 -6.23485 -5.11989 7.39531 -6.23486 -5.11989 85.6889 -32.7986 -113.392 45.6294 -0.824548 -21.8726 -14.5182 -24.9902 -0.00587322 -24.7529 10.3085 -55.9206 -76.4367 -48.8761 99.5943 -39.8936 3.24067 22.4757 16.9019 24.6011 -46.1085 12.257 1.60652 8.78327 -9.94049 12.5369 21.7804 -12.5475 12.0386 -6.57486 
29.075 99.005 -355.991 28.0109 -68.8255 35.9637 -178.695 28.952 93.3175 -23.2333 6.2637 0.709827 70.4245 -0.971205 -9.80344 25.7645 -2.58414 -2.12347 171.291 25.2685 95.8202 -21.8371 16.4327 4.00821 54.8161 5.15728 4.10838 39.2041 3.68485 18.1884 -2.92958 3.37623 -91.984 20.0759 -6.79376 -2.57636 8.42075 -6.90051 -2.27369 -14.2018 -5.70532 -4.50313 5.81085 -5.70532 -4.50313 85.8386 -32.9321 -113.055 44.4419 -3.02431 -17.8449 -10.7202 -22.8151 -0.00577522 -22.0643 8.67832 -53.0213 -81.0686 -51.6658 92.6959 -36.9907 3.37279 20.8534 15.5013 22.2534 -45.4491 12.983 1.6347 8.37535 -5.87564 9.99533 20.3316 -14.7448 8.87091 -6.00758 
29.4738 99.2341 -356.341 32.5368 -72.04 40.052 -178.123 26.0984 93.1084 -24.3387 3.04921 0.993014 70.3685 -2.85324 -13.7365 25.4725 -3.21237 -4.71155 172.187 18.9403 95.2587 -17.2997 6.69433 2.86564 58.9897 1.29236 0.89615 39.6278 1.05718 5.66706 -2.58264 4.06612 -91.725 18.7023 -5.97565 -2.31837 7.04353 -6.07186 -2.05236 -15.5579 -5.00264 -4.00978 4.45474 -5.00264 -4.00979 86.1615 -34.4821 -111.782 42.7874 -4.5872 -13.811 -9.04093 -24.5413 -0.00585203 -18.2499 5.62982 -44.8618 -85.6335 -53.2238 86.1659 -34.9454 4.17965 18.3708 14.4918 20.7645 -44.9935 14.4041 1.65158 7.36971 -4.05753 7.61546 17.9093 -12.6146 6.30984 -6.22683 
30.0531 99.1845 -356.39 40.0164 -73.806 47.1354 -178.33 24.2348 92.5483 -26.2367 0.537714 1.80013 70.5325 -4.39954 -17.4522 23.2514 -4.71848 -4.92139 172.977 15.736 94.7925 -17.0872 4.01778 1.83362 61.0735 -0.842162 -0.517613 38.1089 -0.41855 -1.17901 -2.29295 4.75895 -91.3904 17.3278 -5.23153 -1.87539 5.66636 -5.30899 -1.64278 -16.9228 -4.42594 -3.363 3.08983 -4.42593 -3.36299 87.0215 -36.7111 -109.336 41.8586 -5.04472 -9.5814 -8.98286 -24.7003 -0.00585948 -12.5991 2.6876 -35.5181 -89.073 -52.9518 81.1541 -33.6168 6.71247 15.1868 13.9736 19.9842 -44.9827 12.9046 1.29685 5.96125 -1.81162 4.90841 12.1504 -10.9269 3.66539 -3.70552 
30.504 98.1281 -356.129 42.3702 -73.892 49.1849 -179.034 25.9781 91.9502 -31.6345 -1.69845 2.69529 73.6457 -5.43161 -20.8595 22.0421 -5.40058 -3.93665 173.562 21.2822 95.0068 -28.5997 7.33309 1.39164 63.1282 -2.08218 -1.24844 42.7056 -1.10344 -3.48095 -2.06685 5.22746 -91.1438 16.3987 -4.65891 -1.53088 4.73538 -4.72174 -1.32396 -17.8446 -3.98332 -2.86186 2.16804 -3.98332 -2.86186 87.4978 -38.415 -107.864 41.3009 -4.18479 -5.14929 -10.515 -21.6274 0.539222 -9.75368 1.29154 -27.937 -90.998 -52.0706 78.1835 -32.7712 11.0285 12.3841 13.7617 18.9286 -46.1545 13.0764 1.35019 6.22153 -0.544968 2.90662 8.1485 -8.56005 1.87492 -1.49271 
30.9424 97.4793 -355.14 43.4715 -73.8139 49.5091 -179.342 26.1694 91.0292 -34.0529 -2.54534 2.97763 75.3812 -5.62792 -22.1894 24.4094 -3.52196 -2.04775 172.497 28.7462 95.4693 -40.4447 11.8544 1.84765 65.8644 -3.0936 -1.8813 41.3481 -1.37484 -4.97769 -1.96261 5.6864 -90.9299 15.4878 -4.34473 -1.1985 3.82378 -4.39325 -1.00578 -18.7538 -3.78351 -2.45033 1.25891 -3.78351 -2.45033 87.0295 -39.5743 -108.251 41.4344 -2.29663 -0.808928 -15.7549 -21.1068 -7.74012 -6.79278 0.348446 -20.5853 -93.2769 -51.7462 74.8043 -29.9373 12.7845 10.5914 14.2245 16.7498 -48.6031 13.0744 1.40473 6.62184 -0.614457 2.17412 6.60528 -5.17778 1.29719 -1.07099 
32.1531 97.7392 -351.034 40.8346 -84.7478 43.6577 -176.459 12.5323 88.4814 -29.7851 -6.81082 1.12739 77.4174 -3.55754 -18.8517 24.7738 -3.2459 -1.89658 175.508 26.0926 93.7688 -40.2117 4.46547 -0.962815 67.0625 -3.87109 -2.24985 38.6748 -1.9467 -8.50244 -1.00381 6.7878 -90.3706 13.2915 -2.17215 -0.482294 1.62237 -2.19128 -0.386189 -20.9243 -1.92672 -1.11304 -0.911643 -1.92672 -1.11304 89.2998 -40.4446 -104.09 41.1146 -2.55202 1.75258 -20.3502 -15.4433 -22.7602 -1.28869 -0.328403 -15.2942 -95.2929 -50.3209 71.4775 -27.4502 13.3057 7.63852 12.6997 15.439 -46.815 10.3987 1.02642 5.46403 -16.9058 4.27051 5.1404 20.291 3.70169 -3.19861 
32.7359 97.2712 -346.917 15.6083 -87.3162 17.289 -175.711 6.51035 87.0697 -26.8276 -5.05352 0.130907 79.3623 0.795681 -13.007 29.2259 -0.140227 -2.2246 177.331 28.1577 93.4788 -31.6501 -0.281608 -1.43123 65.2255 -3.1389 -1.78676 40.1286 -2.58312 -10.7917 -0.643194 7.25162 -90.1909 12.3698 -1.36886 -0.226737 0.699561 -1.37752 -0.16627 -21.8406 -1.23742 -0.627717 -1.82796 -1.23742 -0.627726 90.1007 -41.8381 -102.328 39.4019 -3.11877 4.44823 -20.0215 -13.342 -30.2025 -1.16346 -0.268245 -8.42143 -94.9493 -48.6253 71.4745 -24.7098 16.4957 3.00961 11.7327 14.0233 -46.7057 8.66054 0.667375 3.46906 -11.3186 2.87223 2.14152 14.0809 2.63094 -0.736606 
33.3957 96.19 -341.806 6.8601 -87.3315 7.36287 -176.018 1.06092 84.8094 -22.6776 1.67105 -0.433571 78.6298 8.66617 -1.79461 36.9459 6.04532 -0.226431 177.12 30.9946 93.2069 -22.8253 1.37058 -0.715665 64.2349 -2.6597 -1.49897 42.0824 -1.55995 -5.5502 -0.589528 7.55462 -90.1009 11.7647 -1.21983 -0.0721696 0.0943536 -1.22184 -0.018411 -22.4449 -1.14174 -0.435493 -2.43228 -1.14175 -0.435498 90.5846 -42.5492 -101.323 37.802 -4.62882 6.60282 -17.7274 -13.7751 -33.4704 -1.63897 -0.216498 -3.22685 -95.7437 -48.1778 70.1542 -20.8956 17.9493 -1.52555 11.1167 13.2668 -46.4596 10.965 1.00558 4.97525 -3.6903 0.849285 0.154899 5.02245 0.963751 2.33106 
33.4958 94.5494 -335.212 3.66428 -86.95 3.66564 -175.913 -3.37343 84.5828 -21.2176 15.509 -1.32046 70.8984 14.0561 13.6399 45.2618 14.6624 4.40423 176.849 33.5834 94.0516 -20.1692 2.76567 -0.00281495 65.7203 -3.02738 -1.70084 38.9431 -1.9291 -8.34055 -0.599767 7.76903 -90.1563 11.3353 -1.26633 -0.184701 -0.334996 -1.27322 -0.128781 -22.8743 -1.15227 -0.556801 -2.86167 -1.15226 -0.556789 90.7234 -43.4763 -100.852 35.1824 -6.48812 8.45931 -15.1705 -14.9657 -34.8168 -0.845281 -0.184888 -0.707275 -96.9042 -48.456 68.5218 -17.6732 17.7111 -5.4431 9.15573 13.8043 -42.7827 13.0298 1.14256 4.72992 -2.72032 0.343768 -0.563947 6.08526 0.659264 3.63023 
33.2581 93.4707 -326.444 36.6096 -86.1186 36.6335 -175.174 -7.00943 86.7777 -23.7045 21.7914 -0.873968 64.8861 7.19519 9.82014 58.5383 26.4355 4.40459 176.651 34.9332 94.3859 -28.1555 3.50906 -0.0686004 64.5167 -1.88059 -1.13045 42.5073 -1.37261 -4.73684 -0.88018 7.76073 -90.3456 11.3516 -1.91263 -0.49673 -0.318004 -1.93265 -0.41204 -22.8616 -1.67491 -1.04871 -2.84899 -1.67492 -1.04872 90.6758 -43.4777 -100.93 33.3534 -8.46951 11.5851 -11.4846 -15.6452 -35.0592 -2.67759 -0.261556 3.71158 -97.0199 -48.1962 68.2637 -19.5256 16.4836 -5.05345 7.9788 16.3294 -38.3392 13.5461 1.31973 5.69455 -2.1305 0.301604 -0.253731 5.62841 0.576087 3.75282 
32.5952 92.8337 -316.396 44.7285 -84.7967 45.5022 -173.553 -5.62986 92.0552 -32.3615 25.5599 -0.100065 59.6095 0.805338 2.90264 57.6211 29.3151 9.71796 175.426 35.4874 95.7266 -39.9058 5.30388 0.384485 68.6097 -3.20017 -1.87384 35.8784 -1.31176 -6.18117 -1.04054 7.62243 -90.5861 11.6195 -2.34441 -0.926474 -0.0496064 -2.38291 -0.822355 -22.5949 -1.95758 -1.58839 -2.58223 -1.95758 -1.5884 90.5103 -43.8105 -101.116 31.6573 -9.9917 12.0974 -9.42552 -16.3961 -34.3732 -2.49489 -0.246301 4.28353 -97.3685 -48.4366 67.8292 -22.2585 15.8874 -1.1058 6.4402 16.5218 -35.8199 13.5609 1.17211 4.64271 -1.38908 0.0900576 -0.183617 3.95581 0.349112 4.68688 
31.5179 92.7959 -306.463 43.8552 -87.0113 45.0327 -171.715 4.97171 92.1047 -53.0119 25.4059 0.403236 48.6443 -8.19907 -1.82309 38.9294 16.2313 20.3237 175.553 29.6021 98.1374 -44.9681 4.79371 -0.323369 75.2228 -5.58329 -2.94561 32.6436 -0.87067 -5.30456 -0.684849 7.7041 -90.594 11.4565 -1.63997 -1.0168 -0.213822 -1.68313 -0.943626 -22.751 -1.25859 -1.46267 -2.73831 -1.25859 -1.46266 90.4914 -42.567 -101.474 33.1621 -10.7268 10.8385 -10.0286 -14.8353 -37.0371 -3.52777 -0.359652 5.57627 -97.3894 -48.6951 67.8858 -24.2274 16.5529 4.0703 7.24135 16.1899 -38.0101 12.8789 0.953049 3.43187 -1.70466 -1.24779 -0.213745 2.92754 -1.04382 3.75053 
30.6065 94.907 -296.851 53.5987 -87.8834 52.9106 -172.244 18.9724 92.4597 -63.4448 18.336 0.402142 52.2291 -4.92606 2.13447 36.5112 14.0471 21.5461 175.55 19.0188 96.9092 -39.1991 4.04301 -1.59006 77.7389 -6.83089 -3.39919 31.3026 -0.594135 -3.91359 -0.359403 7.81262 -90.2572 11.2471 -0.834926 -0.429637 -0.423675 -0.853019 -0.392483 -22.9598 -0.667204 -0.660711 -2.94711 -0.667201 -0.660704 90.3109 -40.5989 -102.319 35.0253 -12.2619 7.80737 -12.1932 -13.5422 -43.3899 -9.41467 -0.719235 3.35825 -96.8793 -48.7322 68.6503 -26.0865 14.0709 6.53111 7.45457 15.2757 -38.6197 15.036 1.23106 4.24634 -2.69566 -2.49541 1.0923 3.40556 -2.5391 1.16862 
30.0125 96.5558 -287.347 -36.8217 -87.8296 -38.6427 -173.444 27.3297 90.3115 -47.6652 15.3886 -1.59223 57.932 -1.24142 2.09406 41.9019 20.9174 22.9355 176.064 8.46686 96.0669 -29.6119 2.37832 -3.35018 77.997 -7.16777 -3.49145 32.3637 -0.188467 -0.811899 0.268622 7.70582 -89.9199 11.462 0.571962 0.101383 -0.208823 0.575877 0.0761058 -22.7451 0.515051 0.268594 -2.73242 0.51505 0.268592 90.6877 -39.2015 -102.067 35.3115 -13.7341 5.05661 -13.1777 -10.0748 -52.4844 -11.6317 -0.812553 2.70678 -95.5633 -48.4355 70.5032 -28.5989 11.4004 9.8795 8.94677 15.1728 -40.5358 13.8961 1.18184 4.49379 -3.30933 -3.33885 1.63683 2.65717 -3.4982 -0.308267 
